<svg width="849" height="613" viewBox="0 0 849 613" fill="none" xmlns="http://www.w3.org/2000/svg">
<path d="M202 124H647C712 124 765 177 765 242V362C765 494 658 601 526 601H323C191 601 84 494 84 362V242C84 177 137 124 202 124Z" fill="white"/>
<path d="M202 112H647C683 112 715 127 739 150C762 174 777 206 777 242V362C777.097 394.948 770.6 427.582 757.891 457.98C745.183 488.378 726.519 515.926 703 539C658 584 595 613 527 613H323C254 613 191 584 146 539C101 494 72 431 72 362V242C72 206 87 174 110 150C134 127 166 112 202 112ZM647 135H202C172 135 146 147 126 166C107 186 95 212 95 242V362C95.0313 391.924 100.965 421.547 112.462 449.174C123.959 476.801 140.793 501.889 162 523C183.111 544.207 208.199 561.041 235.826 572.538C263.453 584.035 293.076 589.969 323 590H527C589 590 646 564 687 523C729 482 754 425 754 362V242C754 212 742 186 723 166C703 147 677 135 647 135Z" fill="#262626"/>
<path d="M519 251H330C311.927 251.031 294.117 246.68 278.094 238.32C262.071 229.96 248.314 217.841 238 203H227V206C245 245 285 273 330 273H519C565 273 604 245 622 206V203H611C600.686 217.841 586.929 229.96 570.906 238.32C554.883 246.68 537.073 251.031 519 251Z" fill="white"/>
<path d="M750 163C764.388 183.501 772.073 207.954 772 233V356C772 490 662 600 528 600H321C187 600 77 490 77 356V233C76.9268 207.954 84.6122 183.501 99 163C97.0164 171.525 96.0099 180.248 96 189V340C96 452 188 544 300 544H549C661 544 753 452 753 340V189C752.99 180.248 751.984 171.525 750 163Z" fill="white"/>
<path d="M321 577C187 577 77 467 77 333V350C77 484 187 594 321 594H528C662 594 772 484 772 350V333C772 467 662 577 528 577H321Z" fill="#FA3336"/>
<path d="M319 12H530C645 12 742 96 760 206C745 158 700 124 647 124H202C149 124 104 158 89 206C107 96 204 12 319 12Z" fill="white"/>
<path d="M319 0H530C590 0 645 22 688 58C731.807 95.5308 761.158 147.16 771 204C771.498 206.913 770.835 209.906 769.152 212.336C767.47 214.766 764.902 216.44 762 217C756 218 750 214 749 209C742 187 728 169 710 155C693 142 671 135 647 135H202C178 135 156 142 139 155C121 169 107 188 100 209C98 215 92 219 86 217C80 215 77 210 78 204C87.8421 147.16 117.193 95.5308 161 58C204 22 259 0 319 0ZM530 23H319C266.691 22.9191 216.039 41.3381 176 75C155.262 92.6766 137.971 114.036 125 138L126 137C147 122 173 112 202 112H647C676 112 702 122 724 137L725 138C711.345 114.216 693.764 92.9157 673 75C632.961 41.3381 582.309 22.9191 530 23Z" fill="#262626"/>
<path d="M322 12H527C516.252 29.3942 501.244 43.7583 483.395 53.7327C465.546 63.7071 445.447 68.9619 425 69C404.392 69.0915 384.104 63.9002 366.073 53.9216C348.041 43.943 332.868 29.5101 322 12Z" fill="#FA3336"/>
<path d="M322 0H527C533 0 538 5 538 12C538 14 538 16 536 18C524.24 36.6106 508.104 52.0601 489 63C469.535 74.2024 447.458 80.0667 425 80C402.525 80.1974 380.414 74.3241 361 63C341 52 324 37 312 17C309 12 311 5 316 2C318 1 320 0 322 0ZM504 23H345C352 31 361 38 371 44C387.73 52.5123 406.229 56.9658 425 57C443.437 56.8464 461.584 52.3952 478 44C488 38 497 31 504 23Z" fill="#262626"/>
<path d="M227 197C232 197 236 200 238 205C246.095 222.229 258.929 236.797 275 247C291.182 258.12 310.366 264.05 330 264H519C538.634 264.05 557.818 258.12 574 247C590 237 604 222 612 204C614 200 618 197 622 197H632C643.536 197.045 654.95 199.365 665.589 203.826C676.228 208.288 685.882 214.803 694 223C702.197 231.118 708.712 240.772 713.174 251.411C717.635 262.05 719.955 273.464 720 285V363C720 409 701 450 671 481C639.884 511.846 597.814 529.106 554 529H295C251.186 529.106 209.116 511.846 178 481C148 450 129 409 129 363V285C129.045 273.464 131.365 262.05 135.826 251.411C140.288 240.772 146.803 231.118 155 223C154.997 222.868 155.021 222.737 155.07 222.614C155.12 222.492 155.194 222.381 155.287 222.287C155.381 222.194 155.492 222.12 155.614 222.07C155.737 222.021 155.868 221.997 156 222C172 207 193 197 217 197H227Z" fill="url(#paint0_linear_1151_292985)"/>
<path d="M286 521C286 514 292 510 298 511C304 511 309 517 308 523C307 535 306 546 307 558C308.027 569.484 310.034 580.859 313 592C314 598 311 604 305 606C299 607 293 604 291 598C288.026 585.169 286.02 572.132 285 559C284 546 284 533 286 521Z" fill="#262626"/>
<path d="M545 523C544 517 548 511 555 511C561 510 566 514 567 521C568 533 569 546 568 559C567.127 572.22 564.779 585.302 561 598C560 604 554 607 548 606C542 604 538 598 540 592C543.128 580.93 544.808 569.502 545 558C546 546.355 546 534.645 545 523Z" fill="#262626"/>
<path d="M110 472C53 452 11 397 11 333C11 276 43 227 90 202C85.9821 214.952 83.959 228.439 84 242V362C84 402 93 439 110 472Z" fill="white"/>
<path d="M106 482C75.2023 471.144 48.3763 451.285 29 425C10.2211 397.987 0.106488 365.899 0 333C0 303 9 275 23 251C37.9472 226.339 59.3984 206.272 85 193C91 190 97 192 100 197C100.885 198.306 101.438 199.808 101.612 201.376C101.786 202.944 101.576 204.531 101 206C98.8716 211.862 97.1999 217.88 96 224C95 229 95 235 95 242V362C94.907 380.171 96.9204 398.292 101 416C106 434 112 451 120 467C123 472 121 479 116 482C112 484 109 484 106 482ZM48 412C58 427 72 439 88 449C85 440 82 431 80 421C74.7562 401.77 72.0664 381.932 72 362V242C72 237 73 232 73 227C61 237 50 249 42 263C29.4326 284.177 22.8646 308.375 23 333C22.9993 361.279 31.7303 388.869 48 412Z" fill="#262626"/>
<path d="M202 112H647C683 112 715 127 739 150C762 174 777 206 777 242V362C777.097 394.948 770.6 427.582 757.891 457.98C745.183 488.378 726.519 515.926 703 539C658 584 595 613 527 613H323C254 613 191 584 146 539C101 494 72 431 72 362V242C72 206 87 174 110 150C134 127 166 112 202 112ZM647 135H202C172 135 146 147 126 166C107 186 95 212 95 242V362C95.0313 391.924 100.965 421.547 112.462 449.174C123.959 476.801 140.793 501.889 162 523C183.111 544.207 208.199 561.041 235.826 572.538C263.453 584.035 293.076 589.969 323 590H527C589 590 646 564 687 523C729 482 754 425 754 362V242C754 212 742 186 723 166C703 147 677 135 647 135Z" fill="#262626"/>
<path d="M83.9999 344C81.9999 375 86.9999 416 97.9999 467C22.9999 427 -2.00006 364 21.9999 279C32.9999 323 52.9999 345 83.9999 344Z" fill="white"/>
<path d="M97.0001 463C96.0001 445 95.0001 436 95.0001 436C43.0001 404 20.0001 356 26.0001 292C3.00014 375 27.0001 432 97.0001 463Z" fill="#FA3336"/>
<path d="M106 482C75.2023 471.144 48.3763 451.285 29 425C10.2211 397.987 0.106488 365.899 0 333C0 303 9 275 23 251C37.9472 226.339 59.3984 206.272 85 193C91 190 97 192 100 197C100.885 198.306 101.438 199.808 101.612 201.376C101.786 202.944 101.576 204.531 101 206C98.8716 211.862 97.1999 217.88 96 224C95 229 95 235 95 242V362C94.907 380.171 96.9204 398.292 101 416C106 434 112 451 120 467C123 472 121 479 116 482C112 484 109 484 106 482ZM48 412C58 427 72 439 88 449C85 440 82 431 80 421C74.7562 401.77 72.0664 381.932 72 362V242C72 237 73 232 73 227C61 237 50 249 42 263C29.4326 284.177 22.8646 308.375 23 333C22.9993 361.279 31.7303 388.869 48 412Z" fill="#262626"/>
<path d="M739 470C796 451 838 396 838 331C838 275 806 226 759 201C763.092 213.591 765.119 226.761 765 240V361C765 400 756 438 739 470Z" fill="white"/>
<path d="M761 448C777 438 791 425 801 410C817 388 826 361 826 331C825.869 306.41 819.319 282.281 807 261C799 248 788 235 776 226C776 230 777 235 777 240V361C777 381 774 401 770 420C767 429 764 439 761 448ZM820 423C801 449 774 470 743 481C740 482 737 482 733 480C728 478 726 471 729 465C737 449 743 432 748 415C752.079 397.292 754.093 379.171 754 361V240C754.166 233.983 753.831 227.962 753 222C751.934 216.174 750.258 210.476 748 205C747.424 203.531 747.214 201.944 747.388 200.376C747.562 198.808 748.115 197.306 749 196C752 190 758 188 764 191C789.643 204.668 811.077 225.066 826 250C841 273 849 302 849 331C849.047 363.923 838.918 396.055 820 423Z" fill="#262626"/>
<path d="M765 342C767 373 762 414 752 465C826 425 851 363 827 277C817 322 796 343 765 342Z" fill="white"/>
<path d="M752 461C753 444 754 435 754 435C806 403 830 355 824 291C846 374 822 431 752 461Z" fill="#FA3336"/>
<path d="M761 448C777 438 791 425 801 410C817 388 826 361 826 331C825.869 306.41 819.319 282.281 807 261C799 248 788 235 776 226C776 230 777 235 777 240V361C777 381 774 401 770 420C767 429 764 439 761 448ZM820 423C801 449 774 470 743 481C740 482 737 482 733 480C728 478 726 471 729 465C737 449 743 432 748 415C752.079 397.292 754.093 379.171 754 361V240C754.166 233.983 753.831 227.962 753 222C751.934 216.174 750.258 210.476 748 205C747.424 203.531 747.214 201.944 747.388 200.376C747.562 198.808 748.115 197.306 749 196C752 190 758 188 764 191C789.643 204.668 811.077 225.066 826 250C841 273 849 302 849 331C849.047 363.923 838.918 396.055 820 423Z" fill="#262626"/>
<path d="M245 289C317 329 353 350 353 350C333 372 300 378 274 363C248 348 236 317 245 289Z" fill="#FA3336"/>
<path d="M604 289C532 329 496 350 496 350C516 372 549 378 575 363C601 348 614 317 604 289Z" fill="#FA3336"/>
<path d="M425 478C452.062 478 474 464.121 474 447C474 429.879 452.062 416 425 416C397.938 416 376 429.879 376 447C376 464.121 397.938 478 425 478Z" fill="#FA3336"/>
<defs>
<linearGradient id="paint0_linear_1151_292985" x1="424.5" y1="197" x2="424.5" y2="529" gradientUnits="userSpaceOnUse">
<stop stop-color="#300000"/>
<stop offset="1" stop-color="#970303"/>
</linearGradient>
</defs>
</svg>
