<svg width="849" height="613" viewBox="0 0 849 613" fill="none" xmlns="http://www.w3.org/2000/svg">
<path d="M202 124H647C712 124 765 177 765 242V363C765 494 658 601 526 601H323C191 601 84 494 84 363V242C84 177 137 124 202 124Z" fill="white"/>
<path d="M202 112H647C683 112 715 127 739 150C762 174 777 206 777 242V363C776.997 395.784 770.45 428.239 757.743 458.46C745.036 488.682 726.425 516.063 703 539C680.063 562.425 652.682 581.036 622.46 593.743C592.239 606.45 559.784 612.997 527 613H323C290.052 613.097 257.418 606.6 227.02 593.891C196.622 581.183 169.074 562.519 146 539C101 494 72 431 72 363V242C72 206 87 174 110 150C134 127 166 112 202 112ZM647 135H202C172 135 146 147 126 166C107 186 95 212 95 242V363C95 425 121 482 162 523C203 565 260 590 323 590H527C556.794 590.097 586.305 584.217 613.788 572.709C641.27 561.201 666.165 544.298 687 523C708.298 502.165 725.201 477.27 736.709 449.787C748.217 422.305 754.097 392.794 754 363V242C754 212 742 186 723 166C703 147 677 135 647 135Z" fill="#262626"/>
<path d="M519 251H330C311.927 251.031 294.117 246.68 278.094 238.32C262.071 229.96 248.314 217.841 238 203H227V206C245 245 285 273 330 273H519C565 273 604 245 622 206V203H611C600.686 217.841 586.929 229.96 570.906 238.32C554.883 246.68 537.073 251.031 519 251Z" fill="white"/>
<path d="M750 163C764.388 183.501 772.073 207.954 772 233V356C772 490 662 600 528 600H321C187 600 77 490 77 356V233C76.9268 207.954 84.6122 183.501 99 163C97.0164 171.525 96.0099 180.248 96 189V340C96 452 188 544 300 544H549C661 544 753 452 753 340V189C752.99 180.248 751.984 171.525 750 163Z" fill="white"/>
<path d="M321 577C187 577 77 467 77 333V350C77 484 187 594 321 594H528C662 594 772 484 772 350V333C772 467 662 577 528 577H321Z" fill="url(#paint0_linear_1151_292986)"/>
<path d="M319 12H530C645 12 742 96 760 206C745 158 700 124 647 124H202C149 124 104 158 89 206C107 96 204 12 319 12Z" fill="white"/>
<path d="M319 0H530C590 0 645 22 688 58C731.807 95.5308 761.158 147.16 771 204C771.498 206.913 770.834 209.906 769.152 212.336C767.47 214.766 764.902 216.44 762 217C756 218 750 215 749 209C742 187 728 169 710 155C691.551 142.024 669.555 135.041 647 135H202C179.445 135.041 157.449 142.024 139 155C121 169 107 188 100 210C98 215 92 219 86 217C80 215 77 210 78 204C87.8421 147.16 117.193 95.5308 161 58C204 22 259 0 319 0ZM530 23H319C266.691 22.9191 216.039 41.3381 176 75C155.262 92.6766 137.971 114.036 125 138L126 137C147 122 173 112 202 112H647C676 112 702 122 724 137L725 138C711.345 114.216 693.764 92.9157 673 75C632.961 41.3381 582.309 22.9191 530 23Z" fill="#262626"/>
<path d="M322 12H527C516.252 29.3942 501.243 43.7583 483.395 53.7327C465.546 63.7071 445.447 68.9619 425 69C404.392 69.0915 384.104 63.9002 366.072 53.9216C348.041 43.943 332.868 29.5101 322 12Z" fill="url(#paint1_linear_1151_292986)"/>
<path d="M322 0H527C533 0 538 5 538 12C538 14 538 16 536 18C524 37 508 53 489 63C469.535 74.2024 447.458 80.0667 425 80C402.525 80.1974 380.414 74.3241 361 63C341 52 324 37 312 18C309 12 311 5 316 2C318 1 320 0 322 0ZM504 23H345C352 31 361 38 371 44C387.73 52.5123 406.229 56.9658 425 57C443.437 56.8464 461.584 52.3952 478 44C488 38 497 31 504 23Z" fill="#262626"/>
<path d="M217 208H227C245 248 285 275 330 275H519C565 275 604 248 622 208H632C674 208 709 243 709 285V363C709 448 639 518 554 518H295C210 518 141 448 141 363V285C141 243 175 208 217 208Z" fill="#262626"/>
<path d="M217 197H227C232 197 236 200 238 205C246.095 222.229 258.929 236.797 275 247C291.182 258.12 310.366 264.05 330 264H519C538.634 264.05 557.818 258.12 574 247C590 237 604 222 612 204C614 200 618 197 622 197H632C643.536 197.045 654.95 199.365 665.589 203.826C676.228 208.288 685.882 214.803 694 223C702.197 231.118 708.712 240.772 713.174 251.411C717.635 262.05 719.955 273.464 720 285V363C719.945 407.272 702.321 449.712 671 481C639.884 511.846 597.814 529.106 554 529H295C251.186 529.106 209.116 511.846 178 481C146.679 449.712 129.055 407.272 129 363V285C129.045 273.464 131.365 262.05 135.826 251.411C140.288 240.772 146.803 231.118 155 223L156 222C172 207 193 197 217 197ZM220 220H217C199.947 219.995 183.521 226.423 171 238V239C164.931 245.017 160.123 252.185 156.861 260.084C153.598 267.983 151.946 276.454 152 285V363C151.929 381.931 155.603 400.69 162.811 418.196C170.019 435.701 180.619 451.608 194 465C220.767 491.837 257.097 506.944 295 507H554C591.903 506.944 628.233 491.837 655 465C668.381 451.608 678.981 435.701 686.189 418.196C693.397 400.69 697.071 381.931 697 363V285C697.054 276.454 695.402 267.983 692.139 260.084C688.877 252.185 684.069 245.017 678 239C671.983 232.931 664.815 228.124 656.916 224.861C649.017 221.598 640.546 219.946 632 220H629C619.057 238.916 604.204 254.806 586 266C567 279 544 286 519 286H330C306 286 282 279 263 266C244.796 254.806 229.943 238.916 220 220Z" fill="#262626"/>
<path d="M286 521C286 514 292 510 298 511C304 511 309 517 308 523C307 535 306 546 307 558C307.94 569.495 309.949 580.878 313 592C314 598 311 604 305 606C299 607 293 604 291 598C288.026 585.169 286.02 572.132 285 559C283.846 546.338 284.182 533.584 286 521Z" fill="#262626"/>
<path d="M545 523C544 517 548 511 555 511C561 510 566 514 567 521C568 534 569 547 568 559C567.128 572.22 564.78 585.302 561 598C560 604 554 607 548 606C542 604 538 598 540 592C543.2 580.946 544.882 569.508 545 558C546 546.355 546 534.645 545 523Z" fill="#262626"/>
<path d="M110 472C53.0002 452 11.0002 397 11.0002 333C10.8714 306.148 18.1854 279.785 32.1306 256.837C46.0757 233.889 66.1066 215.254 90.0002 203C85.9079 215.591 83.8816 228.761 84.0002 242V363C83.8212 400.89 92.7375 438.27 110 472Z" fill="white"/>
<path d="M106 482C75.2023 471.144 48.3763 451.285 29 425C10.2211 397.987 0.106488 365.899 0 333C0 303 9 275 23 251C37.9472 226.339 59.3984 206.272 85 193C91 190 97 192 100 197C100.885 198.306 101.438 199.808 101.612 201.376C101.787 202.944 101.576 204.531 101 206C98.8716 211.862 97.1999 217.88 96 224C95 229 95 236 95 242V363C94.9627 380.838 96.9759 398.622 101 416C106 434 112 451 120 467C123 472 121 479 116 482C112 484 109 484 106 482ZM48 412C58.2729 427.278 71.9695 439.947 88 449C84.8754 440.142 82.2053 431.13 80 422C75 402 72 383 72 363V242C72 237 73 232 73 227C61 237 50 249 42 263C29.4326 284.177 22.8646 308.375 23 333C22.9993 361.279 31.7303 388.869 48 412Z" fill="#262626"/>
<path d="M202 112H647C683 112 715 127 739 150C762 174 777 206 777 242V363C776.997 395.784 770.45 428.239 757.743 458.46C745.036 488.682 726.425 516.063 703 539C680.063 562.425 652.682 581.036 622.46 593.743C592.239 606.45 559.784 612.997 527 613H323C290.052 613.097 257.418 606.6 227.02 593.891C196.622 581.183 169.074 562.519 146 539C101 494 72 431 72 363V242C72 206 87 174 110 150C134 127 166 112 202 112ZM647 135H202C172 135 146 147 126 166C107 186 95 212 95 242V363C95 425 121 482 162 523C203 565 260 590 323 590H527C556.794 590.097 586.305 584.217 613.788 572.709C641.27 561.201 666.165 544.298 687 523C708.298 502.165 725.201 477.27 736.709 449.787C748.217 422.305 754.097 392.794 754 363V242C754 212 742 186 723 166C703 147 677 135 647 135Z" fill="#262626"/>
<path d="M83.9999 344C81.9999 375 86.9999 416 97.9999 467C22.9999 427 -2.00006 364 21.9999 279C32.9999 323 52.9999 345 83.9999 344Z" fill="white"/>
<path d="M97.0001 463C96.0001 445 95.0001 436 95.0001 436C43.0001 404 20.0001 357 26.0001 292C3.00014 375 27.0001 432 97.0001 463Z" fill="url(#paint2_linear_1151_292986)"/>
<path d="M106 482C75.2023 471.144 48.3763 451.285 29 425C10.2211 397.987 0.106488 365.899 0 333C0 303 9 275 23 251C37.9472 226.339 59.3984 206.272 85 193C91 190 97 192 100 197C100.885 198.306 101.438 199.808 101.612 201.376C101.787 202.944 101.576 204.531 101 206C98.8716 211.862 97.1999 217.88 96 224C95 229 95 236 95 242V363C94.9627 380.838 96.9759 398.622 101 416C106 434 112 451 120 467C123 472 121 479 116 482C112 484 109 484 106 482ZM48 412C58.2729 427.278 71.9695 439.947 88 449C84.8754 440.142 82.2053 431.13 80 422C75 402 72 383 72 363V242C72 237 73 232 73 227C61 237 50 249 42 263C29.4326 284.177 22.8646 308.375 23 333C22.9993 361.279 31.7303 388.869 48 412Z" fill="#262626"/>
<path d="M739 471C767.935 460.738 792.985 441.773 810.71 416.706C828.436 391.639 837.969 361.701 838 331C838 275 806 226 759 201C763.017 213.609 765.041 226.767 765 240V361C765 400 756 438 739 471Z" fill="white"/>
<path d="M761 448C777 438 791 425 801 410C817 388 826 361 826 331C825.869 306.41 819.319 282.281 807 261C799 248 788 236 776 226C776 230 777 235 777 240V361C777 381 774 401 770 420C767 429 764 439 761 448ZM820 423C801 449 774 470 743 481C740 482 737 482 733 480C728 478 726 471 729 465C737 449 743 432 748 415C752.079 397.292 754.093 379.171 754 361V240C754.166 233.983 753.831 227.962 753 222C751.934 216.174 750.258 210.476 748 205C747.424 203.531 747.213 201.944 747.388 200.376C747.562 198.808 748.115 197.306 749 196C752 190 758 188 764 191C789.643 204.668 811.077 225.066 826 250C841.112 274.308 849.083 302.377 849 331C849.047 363.923 838.918 396.055 820 423Z" fill="#262626"/>
<path d="M765 342C767 373 762 414 752 465C826 425 851 363 827 277C817 322 796 343 765 342Z" fill="white"/>
<path d="M752 462C753 444 754 435 754 435C806 403 830 355 824 291C846 374 822 431 752 462Z" fill="url(#paint3_linear_1151_292986)"/>
<path d="M761 448C777 438 791 425 801 410C817 388 826 361 826 331C825.869 306.41 819.319 282.281 807 261C799 248 788 236 776 226C776 230 777 235 777 240V361C777 381 774 401 770 420C767 429 764 439 761 448ZM820 423C801 449 774 470 743 481C740 482 737 482 733 480C728 478 726 471 729 465C737 449 743 432 748 415C752.079 397.292 754.093 379.171 754 361V240C754.166 233.983 753.831 227.962 753 222C751.934 216.174 750.258 210.476 748 205C747.424 203.531 747.213 201.944 747.388 200.376C747.562 198.808 748.115 197.306 749 196C752 190 758 188 764 191C789.643 204.668 811.077 225.066 826 250C841.112 274.308 849.083 302.377 849 331C849.047 363.923 838.918 396.055 820 423Z" fill="#262626"/>
<path d="M380 424C409 490 438 490 469 424H380Z" fill="url(#paint4_linear_1151_292986)"/>
<path d="M387 428C394 444 401 455 408 462C412.199 466.355 417.951 468.872 424 469C429 469 434 467 439 462C447 455 454 444 462 428H387ZM402 468C394 459 385 445 377 426C376 425 376 425 376 424C376.071 422.962 376.515 421.985 377.25 421.25C377.985 420.515 378.962 420.071 380 420H470C471.002 420.589 471.757 421.522 472.125 422.625C472.493 423.728 472.448 424.927 472 426C463 445 454 460 445 468C438 475 431 478 424 478C416 478 409 474 402 468Z" fill="url(#paint5_linear_1151_292986)"/>
<path d="M249 352C245 356 238 356 233 352C229 348 229 341 233 336C241 329 249 323 258 320C267.523 316.095 277.708 314.058 288 314C298.292 314.058 308.477 316.095 318 320C327 323 335 329 343 336C347 341 347 348 343 352C338 356 331 356 327 352C321.825 346.883 315.714 342.809 309 340C303 337 295 336 288 336C281 336 273 337 267 340C260.286 342.809 254.175 346.883 249 352Z" fill="url(#paint6_linear_1151_292986)"/>
<path d="M522 352C519.978 353.926 517.293 355 514.5 355C511.708 355 509.022 353.926 507 352C502 348 502 341 506 336C514 329 522 323 532 320C541.144 316.005 551.021 313.961 561 314C571.292 314.058 581.477 316.095 591 320C600 323 609 329 616 336C620 341 620 348 616 352C611 356 604 356 600 352C594.825 346.883 588.714 342.809 582 340C576 337 568 336 561 336C553.799 335.871 546.649 337.233 540 340C533.286 342.809 527.175 346.883 522 352Z" fill="url(#paint7_linear_1151_292986)"/>
<defs>
<linearGradient id="paint0_linear_1151_292986" x1="424.5" y1="333" x2="424.5" y2="594" gradientUnits="userSpaceOnUse">
<stop stop-color="#13F584"/>
<stop offset="1" stop-color="#80FFBF"/>
</linearGradient>
<linearGradient id="paint1_linear_1151_292986" x1="424.5" y1="12" x2="424.5" y2="69.0012" gradientUnits="userSpaceOnUse">
<stop stop-color="#13F584"/>
<stop offset="1" stop-color="#80FFBF"/>
</linearGradient>
<linearGradient id="paint2_linear_1151_292986" x1="57.272" y1="292" x2="57.272" y2="463" gradientUnits="userSpaceOnUse">
<stop stop-color="#13F584"/>
<stop offset="1" stop-color="#80FFBF"/>
</linearGradient>
<linearGradient id="paint3_linear_1151_292986" x1="791.946" y1="291" x2="791.946" y2="462" gradientUnits="userSpaceOnUse">
<stop stop-color="#13F584"/>
<stop offset="1" stop-color="#80FFBF"/>
</linearGradient>
<linearGradient id="paint4_linear_1151_292986" x1="424.5" y1="424" x2="424.5" y2="473.5" gradientUnits="userSpaceOnUse">
<stop stop-color="#13F584"/>
<stop offset="1" stop-color="#80FFBF"/>
</linearGradient>
<linearGradient id="paint5_linear_1151_292986" x1="424.186" y1="420" x2="424.186" y2="478" gradientUnits="userSpaceOnUse">
<stop stop-color="#13F584"/>
<stop offset="1" stop-color="#80FFBF"/>
</linearGradient>
<linearGradient id="paint6_linear_1151_292986" x1="288" y1="314" x2="288" y2="355" gradientUnits="userSpaceOnUse">
<stop stop-color="#13F584"/>
<stop offset="1" stop-color="#80FFBF"/>
</linearGradient>
<linearGradient id="paint7_linear_1151_292986" x1="561.057" y1="314" x2="561.057" y2="355" gradientUnits="userSpaceOnUse">
<stop stop-color="#13F584"/>
<stop offset="1" stop-color="#80FFBF"/>
</linearGradient>
</defs>
</svg>
